<?xml version="1.0" encoding="UTF-8"?> <!-- Generator: Adobe Illustrator 24.3.0, SVG Export Plug-In . SVG Version: 6.00 Build 0) --> <svg xmlns="http://www.w3.org/2000/svg" xmlns:xlink="http://www.w3.org/1999/xlink" version="1.1" x="0px" y="0px" viewBox="0 0 234.3 23.2" style="enable-background:new 0 0 234.3 23.2;" xml:space="preserve"> <style type="text/css"> .st0{display:none;} .st1{display:inline;} .st2{fill:#FFFFFF;} .st3{fill:#FFCB05;} .st4{fill:none;} .st5{clip-path:url(#SVGID_2_);fill:#FFFFFF;} .st6{clip-path:url(#SVGID_2_);} .st7{clip-path:url(#SVGID_4_);fill:#FFFFFF;} .st8{clip-path:url(#SVGID_2_);fill:#FFCB05;} .st9{clip-path:url(#SVGID_6_);fill:#FFFFFF;} .st10{fill:none;stroke:#FFFFFF;stroke-width:0.5;stroke-miterlimit:10;} </style> <g id="Layer_1"> <rect x="1.2" class="st0" width="155.5" height="23.2"></rect> <g transform="translate(117.16 11.621)" class="st0"> <g transform="translate(-117.16 -11.621)" class="st1"> <g transform="translate(44.631)"> <path class="st2" d="M1.7,1.8L1.7,1.8l4,12.7h1.7l4-12.7h0.1v12.7h1.8V0.3h-3l-3.6,12H6.6L3,0.3H0v14.3h1.7L1.7,1.8z"></path> <rect x="15.8" y="0.3" class="st2" width="1.8" height="14.3"></rect> <path class="st2" d="M28.4,4.2C28.6,1.5,27.5,0,24.6,0S20,1.1,20,5.2v4c0,5.5,2.7,5.7,4.5,5.7s4.1,0,4-4.5h-1.9 c0,2.8-1.7,3-2.2,3s-2.6-0.4-2.6-3.9V5.6c0-2.4,0.3-2.8,0.4-3c0.4-0.8,1.3-1.2,2.2-1.1c0.6,0,1.1,0.2,1.6,0.6 c0.3,0.6,0.5,1.3,0.4,2L28.4,4.2z"></path> <path class="st2" d="M32.3,14.6V8.1h5v6.5h1.8V0.3h-1.8v6.2h-5V0.3h-1.8v14.3H32.3z"></path> <rect x="41.8" y="0.3" class="st2" width="1.8" height="14.3"></rect> <path class="st2" d="M54.9,4.1c0.1-3-1.3-4.1-4.4-4.1S46,1.8,46,4.7v4.7c0,4,1.5,5.5,4.5,5.5c1.5,0,3-0.3,4.4-1.1v-7h-4.5v1.6 H53v4.2c-0.8,0.5-1.7,0.7-2.6,0.7c-1.7,0-2.6-0.8-2.6-3.9V4.6c0-3,2-3.1,2.6-3.1C52.3,1.5,53,2.4,53,4L54.9,4.1z"></path> <path class="st2" d="M56.1,14.6h1.8l1.1-3.4h5.5l1.1,3.4h2L62.9,0.3h-2.3L56.1,14.6z M64,9.6h-4.6L61.7,2h0.1L64,9.6z"></path> <path class="st2" d="M76.9,0.3v12.2h-0.1L71.2,0.3h-2.6v14.3h1.7V2.2h0.1L76,14.6h2.5V0.3H76.9z"></path> <path class="st2" d="M93.9,14.6V13h-5.7v-5h5.1V6.5h-5.1V1.8h5.5V0.3h-7.3v14.3H93.9z"></path> <path class="st2" d="M103.7,0.3v12.2h-0.1L98,0.3h-2.6v14.3h1.7V2.2h0.1l5.6,12.4h2.5V0.3H103.7z"></path> <path class="st2" d="M116.5,4.1c0.1-3-1.3-4.1-4.4-4.1s-4.5,1.8-4.5,4.7v4.7c0,4,1.5,5.5,4.5,5.5c1.5,0,3-0.3,4.4-1.1v-7H112 v1.6h2.6v4.2c-0.8,0.5-1.7,0.7-2.6,0.7c-1.7,0-2.6-0.8-2.6-3.9V4.6c0-3,2-3.1,2.6-3.1c1.8,0,2.5,0.9,2.5,2.6L116.5,4.1z"></path> <rect x="119.2" y="0.3" class="st2" width="1.8" height="14.3"></rect> <path class="st2" d="M131.8,0.3v12.2h-0.1l-5.5-12.2h-2.6v14.3h1.7V2.2h0.1l5.6,12.4h2.5V0.3H131.8z"></path> <path class="st2" d="M143.3,14.6V13h-5.7v-5h5.1V6.5h-5.1V1.8h5.5V0.3h-7.3v14.3H143.3z"></path> <path class="st2" d="M152.4,14.6V13h-5.7v-5h5.1V6.5h-5.1V1.8h5.5V0.3h-7.4v14.3H152.4z"></path> <path class="st2" d="M155.7,1.8h2.8c1.1,0,1.9,0.9,1.9,1.9c0,0.1,0,0.2,0,0.2c0,1.1-0.7,2.4-1.9,2.4h-2.7L155.7,1.8z M157.8,8 c1-0.2,2,0.6,2.2,1.6c0,0.1,0,0.2,0,0.2c0.1,1.8,0.1,3.8,0.5,4.8h1.9c-0.3-1.2-0.4-2.5-0.5-3.8c-0.1-2.9-0.7-3.4-2.3-3.7l0,0 c1.6-0.2,2.7-1.6,2.6-3.2c0.2-1.8-1.1-3.4-2.9-3.6c-0.2,0-0.4,0-0.5,0h-5v14.3h1.8V8L157.8,8z"></path> <rect x="164.3" y="0.3" class="st2" width="1.8" height="14.3"></rect> <path class="st2" d="M176.9,0.3v12.2h-0.1l-5.5-12.2h-2.6v14.3h1.7V2.2h0.1l5.6,12.4h2.5V0.3H176.9z"></path> <path class="st2" d="M189.7,4.1c0.1-3-1.3-4.1-4.4-4.1s-4.5,1.8-4.5,4.7v4.7c0,4,1.5,5.5,4.5,5.5c1.5,0,3-0.3,4.4-1.1v-7h-4.4 v1.6h2.6v4.2c-0.8,0.5-1.7,0.7-2.6,0.7c-1.7,0-2.6-0.8-2.6-3.9V4.6c0-3,2-3.1,2.6-3.1c1.8,0,2.5,0.9,2.5,2.6L189.7,4.1z"></path> </g> <g transform="translate(0 0.132)"> <path class="st3" d="M16,18.9L9.4,10v6.5H12v6.4H0v-6.5h2.4v-10H0V0h9.5L16,9l6.5-9H32v6.4h-2.4v10H32v6.4H19.9v-6.4h2.6V10 L16,18.9z"></path> <path class="st2" d="M135.5,22.9v-0.3c0.3,0,0.6-0.1,0.6-0.3c0-0.1,0-0.2-0.1-0.3l-0.1-0.5h-1.7l-0.1,0.4c0,0.1-0.1,0.2-0.1,0.3 c0,0.3,0.3,0.4,0.7,0.4V23h-2v-0.3c0.5,0,0.7-0.1,0.9-0.7l1.3-3.6v-0.1c0.4-0.1,0.7-0.2,1-0.5l0.2,0.7l1.1,3.3 c0.2,0.6,0.3,0.7,0.8,0.8V23L135.5,22.9z M135.1,19l-0.7,2h1.4L135.1,19z M118.2,21.8c-0.4,0.8-1.2,1.2-2.1,1.2 c-1.3,0-2.4-1.1-2.4-2.4c0,0,0-0.1,0-0.1c-0.1-1.3,1-2.5,2.3-2.6c0,0,0.1,0,0.1,0c0.6,0,1.1,0.2,1.6,0.6l0.3-0.3v1.5H118 c-0.1-0.3-0.3-0.6-0.5-0.9c-0.3-0.3-0.6-0.4-1-0.5c-0.9,0-1.6,0.7-1.6,2s0.6,2,1.7,2c0.6,0,1.1-0.3,1.4-0.9l0.3,0.2L118.2,21.8z M119,22.9v-0.3c0.5-0.1,0.5-0.1,0.5-0.7v-2.5c0-0.3,0-0.5,0-0.8c0-0.3-0.1-0.3-0.5-0.4V18h2v0.3c-0.4,0.1-0.5,0.1-0.6,0.3 c0,0.3-0.1,0.5-0.1,0.8v0.7h2.2v-0.8c0-0.9,0-0.9-0.7-1V18h2.1v0.3c-0.6,0.1-0.6,0.1-0.6,1v3c0,0.1,0.2,0.3,0.5,0.3v0.3h-2.1 v-0.3c0.5-0.1,0.6-0.1,0.7-0.4c0-0.2,0-0.4,0-0.7v-0.9h-2.2v0.9c0,1,0,1,0.7,1.1v0.3L119,22.9L119,22.9z M125,22.9v-0.3 c0.5-0.1,0.6-0.1,0.6-0.6v-2.6c0-1,0-1.1-0.6-1.1V18h2v0.3c-0.6,0.1-0.6,0.1-0.6,1.1v2.8c0.1,0.2,0.3,0.4,0.5,0.4v0.3L125,22.9z M111.2,22.9v-0.3c0.5-0.1,0.6-0.1,0.6-0.6v-2.6c0-1,0-1.1-0.6-1.1V18h2v0.3c-0.6,0.1-0.6,0.1-0.6,1.1v2.8 c0.1,0.2,0.3,0.4,0.5,0.4v0.3L111.2,22.9z M108.2,22.9v-0.3c0.6-0.1,0.6-0.1,0.6-1v-2.4l-1.7,3.7h-0.4l-1.6-3.8V22 c0,0.5,0.1,0.6,0.6,0.6v0.3h-1.7v-0.3c0.4,0,0.5-0.1,0.6-0.4c0.1-0.3,0.1-0.5,0.1-0.8v-2.5c0-0.3-0.2-0.5-0.5-0.5c0,0,0,0-0.1,0 v-0.3h1.5l1.5,3.7l1.7-3.7h1.5v0.3c-0.6,0.1-0.6,0.1-0.6,0.9v3c0,0.3,0.1,0.4,0.5,0.5v0.3L108.2,22.9z M138.2,22.9v-0.3 c0.4,0,0.5,0,0.6-0.3c0.1-0.3,0.1-3.2,0.1-3.7c-0.2-0.2-0.4-0.3-0.7-0.3V18h1.5l1.2,1.6l1.3,1.7v-2.1c0-0.8,0-0.8-0.8-0.9V18 h1.9v0.3c-0.5,0-0.6,0.1-0.6,0.9V23h-0.3l-0.5-0.5l-0.7-0.8l-1.9-2.4v2.5c0,0.8,0.1,0.8,0.8,0.9v0.3L138.2,22.9z M97.7,20.5 c0.1,1.3-0.9,2.5-2.2,2.6c-0.1,0-0.2,0-0.3,0c-1.3,0-2.5-1-2.5-2.4c0-0.1,0-0.1,0-0.2c0-1.4,1.1-2.5,2.5-2.5 C96.6,18,97.7,19.1,97.7,20.5C97.7,20.5,97.7,20.5,97.7,20.5z M95.3,22.6c0.4,0,0.8-0.2,1-0.6c0.3-0.5,0.5-1.1,0.4-1.7 c0-0.6-0.2-1.1-0.5-1.5c-0.4-0.5-1.1-0.5-1.6-0.1c0,0-0.1,0.1-0.1,0.1c-0.4,0.4-0.6,1-0.5,1.6c0,0.6,0.1,1.2,0.5,1.7 C94.6,22.4,94.9,22.6,95.3,22.6L95.3,22.6z M98.2,22.6v0.3h2v-0.3c-0.5-0.1-0.6-0.1-0.6-0.6v-1.4h0.5c0.5,0,0.9,0.1,0.9,0.6h0.3 v-1.6h-0.3c0,0.5-0.2,0.6-0.8,0.6h-0.7v-1.7h0.6c0.9,0,1.3,0,1.4,0.7h0.3V18h-3.6v0.3c0.3,0.1,0.5,0.1,0.5,0.3 c0,0.3,0.1,0.6,0.1,0.9V22C98.8,22.3,98.5,22.6,98.2,22.6C98.2,22.6,98.2,22.6,98.2,22.6L98.2,22.6z M56.5,22.9v-0.3 c0.5-0.1,0.6-0.1,0.6-0.6v-2.6c0-1,0-1.1-0.6-1.1V18h2v0.3c-0.6,0.1-0.6,0.1-0.6,1.1v2.8c0.1,0.2,0.3,0.4,0.5,0.4v0.3L56.5,22.9 z M77.8,22.9v-0.3c0.5-0.1,0.6-0.1,0.6-0.6v-2.6c0-1,0-1.1-0.6-1.1V18h2v0.3c-0.6,0.1-0.6,0.1-0.6,1.1v2.8 c0.1,0.2,0.3,0.4,0.5,0.4v0.3L77.8,22.9z M50.6,22.9v-0.3c0.4,0,0.5,0,0.6-0.3s0.1-3.2,0.1-3.7c-0.2-0.2-0.4-0.3-0.7-0.3V18H52 l1.2,1.6l1.4,1.7v-2.1c0-0.8,0-0.8-0.8-0.9V18h1.9v0.3c-0.5,0-0.6,0.1-0.6,0.9V23h-0.3l-0.5-0.5l-0.7-0.8l-1.9-2.4v2.5 c0,0.8,0.1,0.8,0.8,0.9v0.3L50.6,22.9z M73.8,21.4h0.3c0.1,0.7,0.7,1.2,1.5,1.2c0.7,0,1-0.2,1-0.7S76,21.1,75.7,21l-0.6-0.2 c-0.8-0.2-1.2-0.9-1.1-1.7c0.2-0.7,0.8-1.1,1.5-1.1c0.4,0,0.8,0.1,1.1,0.3l0.3-0.2l0.1,1.5h-0.3c0-0.3-0.2-0.5-0.3-0.7 c-0.2-0.3-0.6-0.5-0.9-0.5c-0.5,0-0.8,0.3-0.8,0.7s0.6,0.8,1.1,0.9l0.7,0.3c0.5,0.2,0.7,0.7,0.7,1.3c0,0.9-0.8,1.6-1.6,1.5 c0,0-0.1,0-0.1,0c-0.4,0-0.9-0.1-1.3-0.4l-0.4-0.3v-1.1L73.8,21.4z M81.8,22.9v-0.2c0.5,0,0.6-0.2,0.6-0.5v-3.6h-0.6 c-0.5,0-0.9,0-0.9,0.9h-0.3V18H85v1.4h-0.3c-0.1-0.9-0.4-0.9-0.9-0.9h-0.6v3.6c0,0.4,0.1,0.5,0.6,0.5v0.2L81.8,22.9z M46.9,18.1 v0.3c-0.7,0.1-0.7,0.1-0.7,1.1v1.1c-0.1,0.6,0.1,1.1,0.3,1.6c0.2,0.3,0.5,0.4,0.9,0.4c0.6,0,1.1-0.3,1.3-0.9 c0.1-0.6,0.2-1.2,0.1-1.8c0-0.2,0-0.7,0-0.9s-0.3-0.5-0.7-0.5v-0.3H50v0.3c-0.5,0-0.5,0.1-0.6,0.6v1.7c0,0.4-0.1,0.7-0.1,1.1 c-0.2,0.8-1,1.4-1.9,1.4c-0.4,0-0.9-0.1-1.3-0.3c-0.7-0.5-0.7-1.2-0.7-2v-2.1c0-0.1-0.2-0.3-0.5-0.4V18h2.2L46.9,18.1z M64,18.1 v0.3c-0.5,0.1-0.5,0.2-0.9,1.2L61.7,23h-0.3l-1.3-3.6c-0.3-0.9-0.4-1.1-0.9-1.1v-0.3h2.3v0.3c-0.4,0-0.7,0-0.7,0.3 c0,0.2,0.1,0.5,0.2,0.7l0.9,2.4l1-2.6c0.1-0.2,0.1-0.3,0.1-0.5c0-0.3-0.3-0.4-0.7-0.4V18L64,18.1z M87,22.9v-0.3 c0.4-0.1,0.5-0.1,0.6-0.1s0.1-0.3,0.1-0.8v-0.9l-1.3-2c-0.3-0.5-0.3-0.5-0.8-0.5v-0.3h2.5v0.3c-0.5,0-0.7,0-0.7,0.3 c0,0.2,0.1,0.3,0.2,0.5l0.7,1.2l0.7-1.2c0.1-0.2,0.2-0.3,0.2-0.5c0-0.3-0.2-0.3-0.5-0.3V18h1.9v0.3c-0.5,0-0.7,0.1-1.2,1.1 l-0.7,1.3v1c0,0.9,0,0.9,0.7,1v0.3L87,22.9L87,22.9z M68.2,22.9c0-0.4,0.1-0.8,0.1-1.3h-0.3c-0.2,0.9-0.7,0.9-1.4,0.9 s-0.8-0.2-0.8-0.5v-1.5h0.5c0.6,0,0.8,0.1,0.8,0.6h0.3v-1.6h-0.3c-0.1,0.5-0.1,0.6-0.8,0.6h-0.5v-1.8h0.6c0.8,0,1.1,0.1,1.3,0.7 h0.2V18h-3.4v0.3c0.3,0.1,0.5,0.1,0.5,0.3c0,0.3,0.1,0.6,0.1,0.9V22c0,0.3-0.2,0.6-0.5,0.6c0,0,0,0,0,0v0.3L68.2,22.9z M132.4,20.8v0.3c-0.5,0-0.5,0.1-0.5,1.1v0.3c-0.5,0.4-1.2,0.6-1.8,0.6c-1.4-0.2-2.4-1.5-2.2-2.9c0.2-1.1,1-2,2.1-2.2 c0.6,0,1.2,0.2,1.7,0.5l0.3-0.3v1.5h-0.2c-0.1-0.4-0.3-0.7-0.6-1c-0.3-0.2-0.6-0.4-1-0.3c-0.9,0-1.5,0.7-1.5,2.1 c0,1.4,0.5,2,1.5,2c0.3,0,0.7-0.1,0.9-0.4c0.1-0.1,0.1-0.3,0.1-0.5c0-0.6-0.1-0.7-0.7-0.7v-0.3H132.4z M70.5,20.3H71 c0.5,0,1-0.4,1-0.9s-0.4-1-0.9-1c-0.1,0-0.2,0-0.3,0h-0.3V20.3L70.5,20.3z M70.5,21.3c0,1.1,0,1.3,0.6,1.3v0.3h-2v-0.3 c0.5-0.1,0.6-0.1,0.6-0.7v-2.4c0-0.3,0-0.6,0-0.9c-0.1-0.3-0.2-0.3-0.6-0.3V18h2.2c1.2,0,1.6,0.6,1.6,1.3c0,0.6-0.4,1.1-1,1.3 l0.9,1.5c0.3,0.6,0.5,0.7,0.9,0.7v0.1h-0.3c-0.7,0.1-1.4-0.4-1.7-1.1l-0.3-0.6c-0.3-0.6-0.4-0.6-0.9-0.6L70.5,21.3L70.5,21.3z"></path> </g> <g transform="translate(38.293 0.33)"> <line class="st4" x1="0" y1="0" x2="0" y2="22.6"></line> </g> </g> </g> <g id="CoE-horiz_x5F_rev_x5F_RGB_1_"> <g> <defs> <rect id="SVGID_1_" x="-25" y="-20.9" width="279.4" height="58.7"></rect> </defs> <clipPath id="SVGID_2_"> <use xlink:href="#SVGID_1_" style="overflow:visible;"></use> </clipPath> <polygon class="st5" points="45.7,2.2 45.8,2.2 49.6,14.6 51.3,14.6 55.2,2.2 55.2,2.2 55.2,14.6 57,14.6 57,0.6 54.1,0.6 50.5,12.3 50.5,12.3 46.9,0.6 44.1,0.6 44.1,14.6 45.7,14.6 "></polygon> <rect x="59.5" y="0.6" class="st5" width="1.8" height="14"></rect> <g class="st6"> <defs> <rect id="SVGID_3_" x="-25" y="-20.9" width="279.4" height="58.7"></rect> </defs> <clipPath id="SVGID_4_"> <use xlink:href="#SVGID_3_" style="overflow:visible;"></use> </clipPath> <path class="st7" d="M71.8,4.5c0.2-2.7-0.9-4.1-3.7-4.1c-2.7,0-4.5,1.1-4.5,5.1v4c0,5.4,2.7,5.5,4.4,5.5c0.9,0,4,0,3.9-4.4h-1.8 c0,2.7-1.7,2.9-2.2,2.9c-1.4,0-2.5-0.4-2.5-3.8V5.8c0-2.4,0.3-2.7,0.4-2.9c0.1-0.2,0.6-1.1,2.1-1.1c0.4,0,1.2,0.2,1.6,0.6 c0.4,0.4,0.4,1.2,0.4,2H71.8z"></path> <polygon class="st7" points="75.6,14.6 75.6,8.2 80.5,8.2 80.5,14.6 82.3,14.6 82.3,0.6 80.5,0.6 80.5,6.6 75.6,6.6 75.6,0.6 73.8,0.6 73.8,14.6 "></polygon> <rect x="84.9" y="0.6" class="st7" width="1.8" height="14"></rect> <path class="st7" d="M97.7,4.3c0.1-2.9-1.3-4-4.3-4c-3,0-4.4,1.8-4.4,4.6v4.6c0,3.9,1.4,5.4,4.4,5.4c1.8,0,3.1-0.4,4.3-1V7h-4.4 v1.6h2.6v4.2c-0.4,0.3-1.2,0.6-2.5,0.6c-1.7,0-2.6-0.8-2.6-3.8V4.8c0-2.9,2-3,2.6-3c1.8,0,2.5,0.9,2.5,2.5H97.7z"></path> <path class="st7" d="M98.9,14.6h1.8l1-3.3h5.4l1,3.3h2l-4.5-14h-2.3L98.9,14.6z M106.6,9.7h-4.5l2.2-7.5h0L106.6,9.7z"></path> <polygon class="st7" points="119.2,0.6 119.2,12.6 119.1,12.6 113.7,0.6 111.2,0.6 111.2,14.6 112.8,14.6 112.8,2.5 112.8,2.5 118.3,14.6 120.8,14.6 120.8,0.6 "></polygon> <polygon class="st7" points="135.8,14.6 135.8,13 130.3,13 130.3,8.2 135.3,8.2 135.3,6.6 130.3,6.6 130.3,2.2 135.7,2.2 135.7,0.6 128.5,0.6 128.5,14.6 "></polygon> <polygon class="st7" points="145.4,0.6 145.4,12.6 145.4,12.6 139.9,0.6 137.4,0.6 137.4,14.6 139,14.6 139,2.5 139,2.5 144.5,14.6 147,14.6 147,0.6 "></polygon> <path class="st7" d="M157.9,4.3c0.1-2.9-1.3-4-4.3-4c-3,0-4.4,1.8-4.4,4.6v4.6c0,3.9,1.4,5.4,4.4,5.4c1.8,0,3.1-0.4,4.3-1V7 h-4.4v1.6h2.6v4.2c-0.4,0.3-1.2,0.6-2.5,0.6c-1.7,0-2.6-0.8-2.6-3.8V4.8c0-2.9,2-3,2.6-3c1.8,0,2.5,0.9,2.5,2.5H157.9z"></path> <rect x="160.5" y="0.6" class="st7" width="1.8" height="14"></rect> <polygon class="st7" points="172.9,0.6 172.9,12.6 172.9,12.6 167.4,0.6 164.9,0.6 164.9,14.6 166.5,14.6 166.5,2.5 166.5,2.5 172.1,14.6 174.5,14.6 174.5,0.6 "></polygon> <polygon class="st7" points="184.2,14.6 184.2,13 178.6,13 178.6,8.2 183.7,8.2 183.7,6.6 178.6,6.6 178.6,2.2 184.1,2.2 184.1,0.6 176.8,0.6 176.8,14.6 "></polygon> <polygon class="st7" points="193,14.6 193,13 187.4,13 187.4,8.2 192.5,8.2 192.5,6.6 187.4,6.6 187.4,2.2 192.9,2.2 192.9,0.6 185.7,0.6 185.7,14.6 "></polygon> <path class="st7" d="M196.2,2.2h2.7c1.4,0,1.9,1.1,1.9,2.1c0,1.2-0.6,2.3-1.9,2.3h-2.7V2.2z M198.3,8.2c0.6,0,2,0.1,2.1,1.8 c0.2,1.9,0,3.7,0.5,4.6h1.9c-0.3-0.9-0.5-3.1-0.5-3.7c-0.1-2.8-0.7-3.3-2.3-3.6v0c1.6-0.3,2.6-1.5,2.6-3.2 c0-1.7-0.9-3.5-3.3-3.5h-4.8v14h1.8V8.2H198.3z"></path> <rect x="204.6" y="0.6" class="st7" width="1.8" height="14"></rect> <polygon class="st7" points="217,0.6 217,12.6 216.9,12.6 211.5,0.6 209,0.6 209,14.6 210.6,14.6 210.6,2.5 210.6,2.5 216.1,14.6 218.6,14.6 218.6,0.6 "></polygon> <path class="st7" d="M229.5,4.3c0.1-2.9-1.3-4-4.3-4c-3,0-4.4,1.8-4.4,4.6v4.6c0,3.9,1.4,5.4,4.4,5.4c1.8,0,3.1-0.4,4.3-1V7 h-4.4v1.6h2.6v4.2c-0.4,0.3-1.2,0.6-2.5,0.6c-1.7,0-2.6-0.8-2.6-3.8V4.8c0-2.9,2-3,2.6-3c1.8,0,2.5,0.9,2.5,2.5H229.5z"></path> </g> <polygon class="st8" points="16.1,19 9.7,10.2 9.7,16.6 12.2,16.6 12.2,22.9 0.4,22.9 0.4,16.6 2.8,16.6 2.8,6.8 0.4,6.8 0.4,0.5 9.7,0.5 16.1,9.3 22.5,0.5 31.7,0.5 31.7,6.8 29.3,6.8 29.3,16.6 31.7,16.6 31.7,22.9 19.9,22.9 19.9,16.6 22.5,16.6 22.5,10.2 "></polygon> <g class="st6"> <defs> <rect id="SVGID_5_" x="-25" y="-20.9" width="279.4" height="58.7"></rect> </defs> <clipPath id="SVGID_6_"> <use xlink:href="#SVGID_5_" style="overflow:visible;"></use> </clipPath> <path class="st9" d="M132.9,22.9v-0.3c0.3,0,0.6,0,0.6-0.3c0-0.1,0-0.2-0.1-0.3l-0.1-0.5h-1.7l-0.1,0.4c0,0.1-0.1,0.2-0.1,0.3 c0,0.3,0.4,0.4,0.6,0.4v0.3h-2v-0.3c0.5,0,0.7-0.1,0.8-0.6l1.3-3.5l-0.1-0.1c0.5-0.2,0.7-0.3,0.9-0.4c0.1,0.3,0.1,0.4,0.2,0.7 l1,3.2c0.2,0.6,0.3,0.7,0.8,0.8v0.3H132.9z M132.5,19.1l-0.7,2h1.4L132.5,19.1z M116,21.8c-0.2,0.3-0.7,1.2-2,1.2 c-1.4,0-2.4-1-2.4-2.4c0-1.3,0.8-2.5,2.4-2.5c0.8,0,1.3,0.4,1.6,0.6l0.3-0.3l0,1.4l-0.2,0c-0.1-0.3-0.2-0.5-0.5-0.8 c-0.1-0.2-0.5-0.5-1-0.5c-0.9,0-1.5,0.7-1.5,1.9c0,1,0.6,2,1.7,2c0.8,0,1.1-0.5,1.4-0.8L116,21.8z M116.8,22.9v-0.3 c0.5,0,0.5-0.2,0.5-0.6c0-0.2,0-0.3,0-0.5v-2c0-0.3,0-0.6,0-0.8c0-0.3-0.2-0.3-0.5-0.4v-0.3h2v0.3c-0.4,0-0.5,0.1-0.6,0.3 c0,0.2,0,0.5,0,0.8v0.7c0.4,0,0.7,0,1.1,0c0.4,0,0.7,0,1.1,0v-0.8c0-0.9,0-0.9-0.7-1v-0.3h2.1v0.3c-0.6,0.1-0.6,0.1-0.6,1v2 c0,0.2,0,0.8,0,0.9c0,0.2,0.2,0.3,0.5,0.3v0.3h-2.1v-0.3c0.5-0.1,0.6-0.1,0.6-0.4c0-0.1,0-0.3,0-0.7v-0.9c-0.4,0-0.7,0-1.1,0 c-0.4,0-0.7,0-1.1,0v0.9c0,1,0,1,0.6,1.1v0.3L116.8,22.9L116.8,22.9z M122.6,22.9v-0.3c0.5-0.1,0.6-0.1,0.6-0.6v-0.6v-1.9 c0-1,0-1-0.6-1.1v-0.3h2v0.3c-0.6,0.1-0.6,0.1-0.6,1.1v1.9c0,0.2,0,0.7,0,0.8c0,0.3,0.2,0.4,0.5,0.4v0.3H122.6z M109.2,22.9 v-0.3c0.5-0.1,0.6-0.1,0.6-0.6v-0.6v-1.9c0-1,0-1-0.6-1.1v-0.3h2v0.3c-0.6,0.1-0.6,0.1-0.6,1.1v1.9c0,0.2,0,0.7,0,0.8 c0,0.3,0.2,0.4,0.5,0.4v0.3H109.2z M106.2,22.9v-0.3c0.6,0,0.6-0.1,0.6-0.9v-2.4l-1.7,3.6h-0.4l-1.5-3.7l0,2.8 c0,0.5,0.1,0.6,0.6,0.6v0.3h-1.6v-0.3c0.4,0,0.5-0.1,0.6-0.4c0-0.1,0-0.5,0-0.8l0.1-2c0-0.2,0-0.4,0-0.5c0-0.5-0.1-0.5-0.5-0.5 v-0.3h1.5l1.5,3.6l1.6-3.6h1.4v0.3c-0.6,0-0.6,0.1-0.6,0.8v2c0,0.3,0,0.7,0,1c0,0.3,0.2,0.4,0.5,0.4v0.3H106.2z M135.4,22.9 v-0.3c0.4,0,0.5,0,0.6-0.3c0.1-0.3,0.1-3.1,0.1-3.6c-0.3-0.2-0.4-0.3-0.7-0.3v-0.3h1.4c0.4,0.6,0.5,0.7,1.2,1.6l1.3,1.6v-2.1 c0-0.7,0-0.8-0.8-0.8v-0.3h1.9v0.3c-0.5,0-0.6,0.1-0.6,0.9l-0.1,3.7h-0.3l-0.4-0.5c-0.2-0.3-0.4-0.5-0.6-0.8l-1.9-2.3v2.5 c0,0.8,0.1,0.8,0.8,0.9v0.3H135.4z M95.9,20.5c0,1.6-1.1,2.5-2.4,2.5c-1.4,0-2.5-1-2.5-2.5c0-1.3,0.9-2.5,2.4-2.5 C94.9,18,95.9,19.1,95.9,20.5 M93.6,22.5c0.3,0,0.6-0.1,0.9-0.6c0.3-0.5,0.4-1,0.4-1.6c0-0.6-0.2-1.1-0.5-1.5 c-0.2-0.2-0.5-0.4-0.8-0.4c-0.4,0-0.7,0.2-0.8,0.4c-0.3,0.4-0.5,0.9-0.5,1.5c0,0.6,0.1,1.1,0.4,1.6 C92.9,22.4,93.3,22.5,93.6,22.5 M96.4,22.6v0.3h2v-0.3c-0.5,0-0.6-0.1-0.6-0.6l0-1.3h0.5c0.5,0,0.8,0.1,0.8,0.6h0.2v-1.6h-0.2 c0,0.5-0.2,0.6-0.7,0.6h-0.6v-1.6c0.2,0,0.3,0,0.6,0c0.9,0,1.2,0,1.3,0.7h0.2l-0.1-1.2h-3.5v0.3c0.3,0,0.5,0.1,0.5,0.3 c0,0.1,0,0.7,0,0.9v1.7c0,0.1,0,0.7,0,0.8C96.9,22.5,96.9,22.6,96.4,22.6 M55.7,22.8v-0.3c0.5-0.1,0.6-0.1,0.6-0.6v-0.6v-1.9 c0-1,0-1-0.6-1.1v-0.3h2v0.3c-0.6,0.1-0.6,0.1-0.6,1.1v1.9c0,0.2,0,0.7,0,0.8c0,0.3,0.2,0.4,0.5,0.4v0.3H55.7z M76.6,22.8v-0.3 c0.5-0.1,0.6-0.1,0.6-0.6v-0.6v-1.9c0-1,0-1-0.6-1.1v-0.3h2v0.3C78,18.4,78,18.4,78,19.4v1.9c0,0.2,0,0.7,0,0.8 c0,0.3,0.2,0.4,0.5,0.4v0.3H76.6z M49.9,22.8v-0.3c0.4,0,0.5,0,0.6-0.3c0.1-0.3,0.1-3.1,0.1-3.6c-0.3-0.2-0.4-0.3-0.7-0.3v-0.3 h1.4c0.4,0.6,0.5,0.7,1.2,1.6l1.3,1.6v-2.1c0-0.7,0-0.8-0.8-0.8v-0.3h1.9v0.3c-0.5,0-0.6,0.1-0.6,0.9l-0.1,3.7H54l-0.4-0.5 c-0.2-0.3-0.4-0.5-0.6-0.8l-1.9-2.3v2.5c0,0.8,0.1,0.8,0.8,0.9v0.3H49.9z M72.6,21.4l0.2,0c0.3,0.8,0.7,1.2,1.4,1.2 c0.5,0,0.9-0.2,0.9-0.7c0-0.5-0.5-0.8-0.7-0.8c-0.2-0.1-0.4-0.1-0.6-0.2c-0.4-0.1-1.1-0.4-1.1-1.4c0-0.9,0.7-1.4,1.5-1.4 c0.3,0,0.7,0.1,1.1,0.3l0.3-0.2l0.2,1.4l-0.2,0c-0.1-0.3-0.1-0.5-0.3-0.7c-0.2-0.3-0.5-0.4-0.9-0.4c-0.5,0-0.8,0.2-0.8,0.6 c0,0.6,0.6,0.8,1.1,0.9c0.3,0.1,0.5,0.2,0.7,0.3c0.4,0.2,0.7,0.6,0.7,1.2c0,0.8-0.7,1.5-1.7,1.5c-0.6,0-1-0.3-1.2-0.4l-0.4-0.3 L72.6,21.4z M80.4,22.8v-0.2c0.4,0,0.6-0.2,0.6-0.5v-3.5h-0.6c-0.5,0-0.9,0-0.9,0.8h-0.2l0-1.3h4.3l0,1.3h-0.2 c0-0.8-0.4-0.8-0.9-0.8h-0.6v3.5c0,0.4,0.1,0.5,0.6,0.5v0.2H80.4z M46.3,18.1v0.3c-0.6,0-0.6,0.1-0.6,1.1v1.1 c0,0.6,0,1.1,0.3,1.5c0.2,0.4,0.7,0.4,0.9,0.4c0.7,0,1.1-0.3,1.2-0.9c0.1-0.4,0.1-1.3,0.1-1.8c0-0.2,0-0.7,0-0.9 c0-0.4-0.2-0.4-0.7-0.5v-0.3h1.8v0.3c-0.4,0-0.5,0.1-0.6,0.6c0,0.1-0.1,1.4-0.1,1.6c0,0.4,0,0.7-0.1,1.1 c-0.3,1.3-1.6,1.3-1.9,1.3c-0.3,0-0.8,0-1.2-0.3c-0.7-0.5-0.7-1.2-0.7-1.9v-1.1c0-0.5,0-0.7,0-0.9c0-0.3-0.2-0.4-0.5-0.4v-0.3 L46.3,18.1L46.3,18.1z M63.1,18.1v0.3c-0.5,0.1-0.5,0.2-0.9,1.1l-1.4,3.4h-0.3l-1.3-3.5c-0.3-0.9-0.4-1-0.8-1.1v-0.3h2.2v0.3 c-0.4,0-0.6,0-0.6,0.3c0,0.1,0,0.2,0.2,0.6l0.8,2.4l1-2.5c0.1-0.2,0.1-0.4,0.1-0.5c0-0.3-0.3-0.4-0.6-0.4v-0.3H63.1z M85.5,22.8 v-0.3c0.4,0,0.5-0.1,0.6-0.1c0.1-0.1,0.1-0.2,0.1-0.7v-0.8l-1.3-2c-0.3-0.5-0.3-0.5-0.8-0.5v-0.3h2.5v0.3c-0.5,0-0.7,0-0.7,0.3 c0,0.1,0.1,0.3,0.2,0.5l0.7,1.2l0.7-1.2c0.1-0.2,0.2-0.4,0.2-0.5c0-0.2-0.2-0.2-0.5-0.3v-0.3h1.8v0.3c-0.5,0-0.6,0.2-1.2,1 l-0.7,1.2v1c0,0.9,0,0.9,0.7,1v0.3L85.5,22.8L85.5,22.8z M67.2,22.8c0-0.3,0.1-0.9,0.1-1.2H67c-0.2,0.8-0.6,0.8-1.3,0.8 c-0.6,0-0.8-0.2-0.8-0.5v-1.3h0.5c0.6,0,0.7,0.1,0.7,0.6h0.2v-1.6h-0.2c0,0.4-0.1,0.6-0.7,0.6h-0.5v-1.7h0.6 c0.8,0,1.1,0.1,1.2,0.7h0.2l0-1.1h-3.4v0.3c0.3,0,0.5,0.1,0.5,0.3c0,0.1,0,0.7,0,0.9v1.7c0,0.1,0,0.7,0,0.8 c0,0.5-0.1,0.6-0.6,0.6v0.3H67.2z M129.9,20.8V21c-0.4,0-0.4,0.1-0.4,1v0.4c-0.4,0.2-0.9,0.6-1.8,0.6c-1.6,0-2.4-1.2-2.4-2.5 c0-1.5,1-2.5,2.3-2.5c0.8,0,1.3,0.3,1.7,0.5l0.2-0.3l0,1.5l-0.2,0c-0.1-0.3-0.2-0.6-0.6-1c-0.2-0.2-0.5-0.4-0.9-0.4 c-0.8,0-1.5,0.7-1.5,2.1c0,1.1,0.5,2,1.5,2c0.5,0,0.8-0.4,0.8-0.4c0.1-0.1,0.1-0.2,0.1-0.4c0-0.6-0.1-0.6-0.6-0.7v-0.3H129.9z M69.3,20.3c0.1,0,0.3,0.1,0.4,0.1c0.5,0,0.9-0.4,1-0.8c0-0.5-0.2-1-1.1-1c-0.1,0-0.2,0-0.3,0V20.3z M69.3,21.3 c0,1.1,0,1.2,0.6,1.2v0.3h-2v-0.3c0.5,0,0.6-0.1,0.6-0.6c0-0.2,0-0.4,0-0.6v-1.7c0-0.6,0-0.8,0-0.9c0-0.3-0.2-0.3-0.6-0.3v-0.3 l2.1,0c1.2,0,1.5,0.6,1.5,1.2c0,0.5-0.3,1-0.9,1.2l0.8,1.5c0.3,0.6,0.5,0.7,0.8,0.7v0.2c-0.1,0-0.2,0-0.3,0 c-0.9,0-1.3-0.3-1.6-1.1l-0.3-0.6c-0.3-0.6-0.4-0.6-0.8-0.6V21.3z"></path> </g> <g class="st6"> <defs> <rect id="SVGID_7_" x="-25" y="-20.9" width="279.4" height="58.7"></rect> </defs> <clipPath id="SVGID_8_"> <use xlink:href="#SVGID_7_" style="overflow:visible;"></use> </clipPath> </g> <g class="st6"> <defs> <rect id="SVGID_9_" x="-25" y="-20.9" width="279.4" height="58.7"></rect> </defs> <clipPath id="SVGID_10_"> <use xlink:href="#SVGID_9_" style="overflow:visible;"></use> </clipPath> </g> <path class="st5" d="M37.9,22.8V0.6V22.8z"></path> </g> </g> <line class="st10" x1="37.8" y1="0.6" x2="37.8" y2="22.8"></line> </g> <g id="Layer_2"> </g> </svg> 